<svg width="269" height="269" viewBox="0 0 269 269" fill="none" xmlns="http://www.w3.org/2000/svg">
<path d="M224.024 248.502C224.024 248.126 223.916 247.749 223.755 247.426C223.539 246.996 223.217 246.619 222.786 246.404C222.625 246.296 222.463 246.243 222.302 246.135C221.979 245.974 221.603 245.866 221.28 245.812C220.688 245.651 220.096 245.543 219.504 245.436C218.052 245.167 216.545 245.005 215.039 244.844C214.124 244.79 213.156 244.736 212.241 244.682C211.488 244.629 210.681 244.629 209.928 244.629C208.798 244.575 207.668 244.575 206.592 244.521C205.839 244.521 205.14 244.521 204.387 244.467C202.934 244.413 201.481 244.36 200.083 244.36C199.222 244.36 198.361 244.306 197.554 244.306C196.908 244.306 196.263 244.36 195.563 244.36H191.851C190.56 244.36 189.269 244.306 187.924 244.252C169.955 244.144 151.985 243.822 133.962 243.23C115.186 242.046 96.2487 242.046 77.4725 242.907C70.4247 243.391 63.3769 243.768 56.4905 245.328C52.9935 246.081 47.9901 247.103 47.5059 251.3C47.5597 252.752 48.8509 253.721 49.9807 254.42C57.6741 259.854 86.4571 257.756 97.0019 257.648C95.2803 258.939 95.4955 260.607 97.1095 261.898C100.068 264.373 110.237 264.804 114.272 264.857C129.013 264.75 143.7 264.212 158.388 263.62C163.875 263.136 169.417 263.136 174.85 262.114C176.464 261.791 178.078 261.468 179.423 260.553C182.006 258.886 182.92 256.518 180.499 254.205C192.335 253.936 204.225 254.044 216.007 252.86C216.761 252.806 217.514 252.699 218.213 252.537C219.128 252.322 220.042 251.999 220.903 251.676C221.28 251.515 221.656 251.354 222.033 251.192C222.194 251.085 222.41 251.031 222.571 250.923C222.732 250.816 222.894 250.708 223.001 250.6C223.27 250.385 223.486 250.062 223.647 249.793C223.755 249.632 223.808 249.471 223.862 249.255C223.97 248.986 224.024 248.771 224.024 248.502Z" fill="black"/>
<path d="M110.72 165.058C110.774 166.726 110.559 168.448 110.29 170.115C108.245 183.296 106.093 196.477 104.533 209.766C104.426 210.573 104.426 211.326 104.318 212.133C104.264 212.725 104.049 213.263 103.672 213.693C100.767 216.76 93.0739 216.814 89.0927 216.222C88.3395 216.007 88.0167 215.254 87.8015 214.608C87.6401 214.231 87.5325 213.909 87.4249 213.478C85.8647 201.804 85.8647 189.914 85.1653 178.185C85.1115 175.173 85.0577 171.998 84.9501 169.039C84.9501 167.533 84.5735 165.919 86.1337 165.004C87.2635 164.305 88.6085 164.144 89.8997 163.875C93.0739 163.229 96.3557 163.068 99.5837 162.852C102.005 162.637 104.372 162.368 106.793 162.422C107.492 162.422 108.192 162.476 108.891 162.53C110.075 162.745 110.666 163.928 110.72 165.058Z" fill="black"/>
<path d="M136.007 162.099C134.447 160.754 132.188 161.238 130.305 161.077C125.893 160.862 121.535 161.454 117.231 162.153C115.456 162.422 114.864 164.305 115.025 165.865C115.348 176.733 115.779 187.6 116.639 198.468C117.07 202.395 116.801 206.43 117.608 210.304C117.554 211.003 117.608 211.703 117.823 212.402C118.307 213.64 119.276 213.801 120.513 213.909C124.118 214.178 127.83 214.608 131.381 213.693C133.64 213.317 134.071 212.079 134.286 209.981C134.393 208.636 134.501 207.237 134.609 205.839C135.846 194.541 135.685 183.135 136.492 171.783C136.33 169.846 137.299 163.068 136.007 162.099Z" fill="black"/>
<path d="M97.8633 194.164C97.9171 193.573 98.2399 193.088 98.4013 192.497C100.015 188.408 101.037 184.158 102.598 180.069C103.889 176.357 105.826 172.913 106.794 169.094C107.009 168.394 108.031 168.663 107.924 169.363C107.117 173.613 104.965 177.433 103.512 181.468C101.844 185.718 100.607 190.129 98.5089 194.164C98.3475 194.487 97.9171 194.541 97.8633 194.164Z" fill="white"/>
<path d="M124.977 191.313C123.74 184.749 121.588 178.347 119.92 171.837C119.92 170.976 118.467 167.856 120.297 168.394C120.888 168.878 128.151 195.402 124.977 191.313Z" fill="white"/>
<path d="M154.459 241.938C153.329 237.527 148.272 236.343 144.398 235.482C142.031 235.052 139.718 234.46 137.297 234.353C137.62 232.685 137.297 229.403 137.351 228.704C137.135 224.884 137.243 220.903 137.243 217.029C137.297 214.608 137.189 212.133 137.297 209.712C137.297 209.389 137.189 209.12 137.028 208.959C136.92 208.582 136.597 208.26 136.167 208.313C132.401 208.421 128.635 208.098 124.869 208.206C122.179 208.367 119.435 208.313 116.745 208.636C116.476 208.69 116.153 208.744 115.831 208.744C115.615 208.744 115.4 208.744 115.239 208.851C114.701 209.12 114.647 209.766 114.701 210.304C114.647 211.272 114.701 212.241 114.808 213.263C115.4 219.988 116.261 226.713 117.229 233.384C117.66 237.096 118.144 240.862 118.843 244.521C119.005 245.059 118.897 245.812 119.489 246.135C120.511 246.673 121.749 246.565 122.878 246.619C130.464 246.565 138.05 246.135 145.636 246.242C148.218 246.296 150.747 246.296 153.275 246.242C153.813 246.296 154.244 245.812 154.244 245.274C155.158 244.736 154.62 242.745 154.459 241.938ZM149.563 244.359C142.354 244.198 135.145 244.628 127.882 244.79C125.353 244.844 122.878 244.951 120.35 245.22C120.35 243.552 120.027 242.369 119.812 240.809C118.628 230.64 116.853 220.526 116.369 210.358C117.014 210.25 117.714 210.196 118.359 209.927H121.426C123.094 209.981 124.761 209.82 126.429 209.874C129.55 209.874 132.616 210.143 135.737 210.089C135.629 216.383 135.414 222.678 135.737 229.026C135.79 230.21 135.683 233.546 136.167 234.891C136.113 235.106 136.221 235.375 136.544 235.59C138.965 236.451 141.547 236.72 144.022 237.365C147.842 238.28 153.168 239.517 152.899 244.467C151.877 244.359 150.747 244.359 149.563 244.359Z" fill="black"/>
<path d="M129.012 234.837C126.644 230.748 124.223 226.713 121.802 222.678C121.426 222.194 120.619 222.624 120.888 223.216C123.255 227.628 126.053 231.824 128.743 236.074C129.065 236.451 129.281 237.096 129.765 237.204C129.98 237.204 130.195 236.935 130.034 236.666C129.657 236.02 129.334 235.429 129.012 234.837Z" fill="black"/>
<path d="M101.251 220.364C101.251 220.041 100.982 219.772 100.659 219.772C99.9058 219.772 99.7444 220.687 99.583 221.279C98.238 224.937 97.0006 228.649 95.9246 232.362C95.7094 232.953 95.6018 233.491 95.3866 234.083C95.1714 234.675 94.8486 235.267 94.9024 235.912C94.9024 236.181 95.2252 236.45 95.4404 236.235C95.7632 236.02 95.8708 235.59 96.0322 235.267C96.3012 234.352 96.6778 233.491 97.0006 232.577C97.7538 230.479 98.4532 228.273 99.2602 226.175C99.7444 224.83 100.229 223.485 100.713 222.193C100.874 221.548 101.305 220.902 101.251 220.364Z" fill="black"/>
<path d="M107.385 209.443V209.282V209.12H105.125C104.964 209.12 104.749 209.12 104.587 209.174C104.426 209.174 104.211 209.174 104.049 209.228H102.166C97.3782 209.389 92.59 209.389 87.8556 209.766C87.3176 209.82 86.7796 209.927 86.2416 210.035C86.1878 210.035 86.1878 210.035 86.134 210.089C85.5422 210.573 85.9188 211.81 85.865 212.51C85.9188 213.37 85.9726 214.177 85.9726 215.038C86.0802 218.643 86.2416 222.247 86.4568 225.798C86.7258 228.865 86.7796 231.985 87.479 234.998C82.7984 235.859 76.2886 236.881 72.684 240.163C71.07 242.153 69.3484 244.682 69.6712 247.372C69.6174 247.48 69.5636 247.641 69.6174 247.749C69.8864 248.287 70.6396 248.125 71.1776 248.233C82.368 248.34 93.5584 247.856 104.695 247.157C105.61 247.48 106.094 246.942 106.148 246.404C106.847 243.337 106.524 240.378 106.847 237.311C107.062 233.868 107.224 230.425 107.6 227.036C108.031 221.817 108.407 216.545 108.73 211.326V210.304L107.385 209.443ZM105.717 210.788V211.649C105.125 219.396 104.372 227.143 103.996 234.837C103.942 236.128 103.727 237.473 103.727 238.764C103.727 240.808 103.565 242.584 103.673 244.682C94.7958 245.166 85.865 245.328 76.988 245.597C74.4594 245.704 71.9846 245.973 69.5098 246.296C71.07 240.916 74.1904 238.549 79.5166 237.204C81.3996 236.72 83.2826 236.343 85.1656 235.805C85.865 235.536 87.8556 235.751 87.2638 234.46C87.3714 233.115 87.3176 231.716 87.2638 230.371C87.1562 228.058 86.9948 225.798 86.8334 223.485C86.6182 219.127 86.1878 214.715 86.0802 210.358C92.2672 210.411 98.508 210.196 104.695 209.981H105.502C105.556 209.981 105.663 209.981 105.717 210.035C105.771 210.035 105.771 210.089 105.825 210.089L105.879 210.142V210.68C105.663 210.68 105.663 210.734 105.717 210.788Z" fill="black"/>
<path d="M100.983 221.387C101.144 221.01 101.306 220.634 101.306 220.311C101.306 219.988 101.037 219.719 100.714 219.719C99.9606 219.719 99.7992 220.58 99.6378 221.172C98.3466 224.723 97.1092 228.273 96.0332 231.932C95.818 232.631 95.6028 233.331 95.3876 234.03C95.1724 234.568 94.9572 235.106 94.9034 235.698C94.9034 235.967 94.9572 236.236 95.2262 236.236C95.4952 236.182 95.6566 235.913 95.818 235.698C96.0332 235.214 96.1946 234.676 96.356 234.191C96.625 233.492 96.9478 232.793 97.163 232.039C98.4004 228.489 99.584 224.884 100.983 221.387ZM105.717 210.842V211.649C105.125 219.396 104.372 227.144 103.996 234.837C103.942 236.128 103.727 237.473 103.727 238.764C103.727 240.809 103.565 242.584 103.673 244.682C94.7958 245.167 85.865 245.328 76.988 245.597C74.4594 245.705 71.9846 245.974 69.5098 246.296C71.07 240.916 74.1904 238.549 79.5166 237.204C81.3996 236.72 83.2826 236.343 85.1656 235.805C85.865 235.536 87.8556 235.752 87.2638 234.46C87.3714 233.115 87.3176 231.717 87.2638 230.372C87.1562 228.058 86.9948 225.799 86.8334 223.485C86.6182 219.127 86.1878 214.716 86.0802 210.358C92.2672 210.412 98.508 210.197 104.695 209.981H105.502C105.556 209.981 105.663 209.981 105.717 210.035C105.771 210.035 105.771 210.089 105.825 210.089L105.879 210.143V210.627C105.663 210.681 105.663 210.788 105.717 210.842Z" fill="#FFF100"/>
<path d="M129.496 237.097C129.819 237.259 130.142 236.936 129.927 236.613C129.604 235.967 129.281 235.376 128.958 234.784C127.613 232.417 126.215 230.049 124.762 227.736C123.686 226.068 122.825 224.239 121.695 222.625C121.588 222.464 121.426 222.41 121.265 222.41C120.942 222.41 120.566 222.733 120.727 223.163C122.395 226.283 124.278 229.242 126.161 232.255C126.968 233.546 127.721 234.784 128.582 236.075C128.905 236.398 129.12 236.828 129.496 237.097ZM152.846 243.23C152.899 243.553 152.846 243.984 152.899 244.36C148.434 244.414 143.861 244.306 139.342 244.414C135.522 244.522 131.702 244.791 127.882 244.791C125.354 244.844 122.879 244.952 120.35 245.221C120.35 243.553 120.028 242.37 119.812 240.809C118.629 230.641 116.853 220.527 116.369 210.359C117.015 210.251 117.714 210.197 118.36 209.928C119.382 209.928 120.404 209.874 121.426 209.928C123.094 209.982 124.762 209.821 126.43 209.874C129.55 209.874 132.617 210.143 135.737 210.09C135.63 216.384 135.414 222.679 135.737 229.027C135.791 230.211 135.683 233.493 136.168 234.891C136.114 235.107 136.221 235.376 136.544 235.591C141.225 237.312 152.092 237.043 152.846 243.23Z" fill="#FFF100"/>
<path d="M83.7676 167.963C82.1536 167.963 80.9162 166.511 81.4004 164.951C80.7548 163.552 80.3782 162.045 80.0554 160.485C78.9794 154.89 78.1724 149.187 77.9034 143.484C77.6882 140.418 77.473 137.405 77.2578 134.338C77.0964 132.617 77.1502 130.788 76.5046 129.174C73.438 128.582 70.1562 128.636 67.3048 127.237C60.8488 124.601 55.146 119.705 51.8104 113.572C47.883 107.008 48.7438 102.058 50.842 95.0105C53.3706 83.8201 61.871 75.3197 70.8556 68.7561C74.0836 66.2275 77.7958 64.5597 81.239 62.4077C84.2518 60.4709 87.426 58.7493 90.8154 57.5119C91.73 57.2967 93.5592 56.1669 94.0434 57.2429C96.1416 58.4265 97.4866 60.5785 99.262 62.1387C101.898 64.8287 105.449 66.3889 107.924 69.2403C109.645 66.9269 111.206 64.6135 112.712 62.1387C114.165 60.4709 114.918 56.0593 117.877 57.5657C133.317 63.2147 144.508 76.0191 154.03 88.9311C157.097 93.6655 160.971 97.5391 164.145 102.112C169.041 109.644 174.367 116.853 179.37 124.278C180.877 126.215 182.383 128.151 183.567 130.357C184.105 131.326 185.073 132.079 185.342 133.155C185.611 134.446 184.535 134.715 183.674 135.307C181.146 137.244 178.886 139.557 176.788 141.978C176.088 142.731 175.389 144.238 174.152 143.807C173.291 143.269 172.807 142.301 172.215 141.494C168.987 137.997 166.028 134.177 163.015 130.572C161.186 128.313 159.733 125.784 157.635 123.74C150.587 116.853 144.723 108.891 138.159 101.52C138.213 108.245 138.644 114.97 139.074 121.642C139.666 131.487 139.182 141.332 139.881 151.124C139.935 153.276 139.827 155.482 139.773 157.634C139.666 159.624 140.473 163.39 137.46 163.337C135.631 162.852 133.694 163.498 131.919 163.552C122.342 164.574 112.712 165.004 103.189 165.973C96.6796 166.403 90.2774 168.017 83.7676 167.963ZM70.5866 97.0549C69.7796 97.2701 69.6182 98.1309 69.4568 98.8303C67.8966 99.7987 69.0264 103.296 69.941 104.479C70.2638 105.394 70.748 106.309 71.6088 106.847C72.631 107.492 73.9222 107.869 75.052 107.331C76.0204 106.739 75.859 105.448 75.7514 104.479C75.859 103.726 75.6976 102.973 75.59 102.22C75.4824 101.144 75.321 100.068 75.2134 98.9917C75.2134 98.3999 75.2134 97.7543 74.8368 97.2701C74.783 96.7859 74.7292 96.3017 74.7292 95.8175C74.7292 95.3333 74.8368 94.8491 74.514 94.4187C72.9 93.0199 71.6626 95.9789 70.9094 97.0011C70.8556 97.0011 70.748 97.0011 70.5866 97.0549Z" fill="#C3F1D3"/>
<path d="M83.767 72.3071C81.5074 68.8639 88.609 60.1483 90.5996 57.1355C92.9669 56.7051 95.2803 56.0595 97.5937 55.5215C97.7551 58.3191 94.5271 62.4617 93.1283 64.9365C91.7295 67.3037 90.2768 69.6709 88.4476 71.7691C87.802 72.4685 87.0489 73.1141 86.1343 73.2217C85.2197 73.3293 84.305 73.0603 83.767 72.3071Z" fill="white"/>
<path d="M128.852 79.3017C124.655 76.8807 131.058 69.4025 133.102 66.9277C135.039 68.3803 137.03 69.7253 138.913 71.2855C136.115 75.1053 132.026 79.7321 128.852 79.3017Z" fill="white"/>
<path d="M145.207 98.6693C140.204 95.9793 149.134 86.4029 151.771 84.3047C152.309 85.0041 152.954 85.6497 153.385 86.4567C154.245 88.1245 155.16 89.7385 156.182 91.2987C154.837 92.7513 153.385 94.1501 151.932 95.5489C150.157 97.1091 147.789 99.5839 145.207 98.6693Z" fill="white"/>
<path d="M152.845 118.091C152.791 118.091 152.791 118.091 152.845 118.091C152.791 118.091 152.791 118.091 152.845 118.091L152.791 118.037C152.791 118.037 152.791 118.091 152.845 118.091C152.791 118.037 152.791 118.037 152.791 117.983C151.285 116.208 149.671 114.486 147.949 112.872C149.079 111.689 150.263 110.613 151.554 109.644C155.32 106.201 160.162 108.407 156.719 113.303C155.75 114.702 154.405 116.531 152.845 118.091Z" fill="white"/>
<path d="M166.672 129.174C165.058 128.421 165.434 126.376 165.919 125.031C167.317 121.373 170.384 118.737 173.128 116.047C173.935 117.392 174.742 118.898 176.087 119.705C176.625 120.405 177.324 121.158 178.185 121.481C177.809 121.857 177.432 122.288 177.055 122.664C174.419 124.816 170.707 130.573 166.672 129.174Z" fill="white"/>
<path d="M115.025 115.616C112.927 114.917 113.249 112.603 114.325 111.151C114.272 110.989 114.325 110.828 114.433 110.72C115.401 109.429 116.37 108.192 117.392 106.954C119.383 104.587 121.212 101.897 123.794 100.068C124.494 99.6373 125.301 99.2607 126.161 99.0993C129.067 98.6689 129.766 101.305 128.582 103.565C127.076 106.309 124.763 108.676 122.718 110.989C120.943 112.926 117.984 116.369 115.025 115.616Z" fill="white"/>
<path d="M132.886 152.147C131.541 152.147 130.519 150.856 130.572 149.565C130.519 147.036 132.186 144.938 133.478 142.893C135.361 139.934 137.297 137.029 139.342 134.178C139.127 137.298 139.073 140.419 139.18 143.539V143.7V143.808C139.18 144.454 139.234 145.099 139.234 145.745C138.589 146.713 137.997 147.682 137.297 148.65C136.329 150.156 135.092 152.362 132.886 152.147Z" fill="white"/>
<path d="M117.123 163.229C118.79 161.131 120.135 158.226 122.825 157.365C125.838 156.72 126.161 160.755 124.87 162.638C124.386 163.498 123.848 164.359 123.256 165.166C120.727 165.166 118.199 165.274 115.67 165.381C116.369 164.359 116.961 163.498 117.123 163.229Z" fill="white"/>
<path d="M92.4282 157.957C88.0166 155.643 94.2036 147.466 95.9253 144.722C97.324 142.946 98.0772 140.579 99.9064 139.127C101.198 137.997 103.403 138.051 104.372 139.503C105.555 141.548 104.103 143.969 103.188 145.852C101.736 148.649 100.068 151.339 98.3462 153.975C97.2164 156.181 95.1182 159.14 92.4282 157.957Z" fill="white"/>
<path d="M83.7661 138.051C81.1837 137.674 81.0223 135.2 81.9369 133.209C82.3135 132.294 83.4433 130.089 84.4117 129.82C85.1649 129.013 86.1333 129.497 87.0479 129.389C88.1239 129.282 89.2537 129.282 90.2221 129.82C90.9215 130.196 91.1905 131.165 90.7063 131.81C89.4151 134.285 86.7789 138.266 83.7661 138.051Z" fill="white"/>
<path d="M94.4194 123.471C94.1504 123.471 93.8814 123.417 93.6124 123.363C88.1248 120.835 95.3878 113.948 97.3246 110.882C99.7456 111.151 102.167 111.151 104.588 111.312C102.974 113.948 101.252 116.585 99.4766 119.113C98.1854 120.889 96.7328 123.525 94.4194 123.471Z" fill="white"/>
<path d="M61.5466 83.0136C59.9326 82.7446 59.6636 80.8616 59.8788 79.5166C59.9864 78.2792 60.5782 77.0956 61.1162 76.0196C61.439 75.1588 62.246 74.6746 62.8916 74.029C63.6986 73.2758 64.5594 72.6302 65.474 71.9846C65.5278 71.9846 65.5278 71.9308 65.5816 71.9308C68.433 69.7788 71.2844 67.6268 74.082 65.3672C74.1896 68.4338 69.778 74.298 68.164 77.0956C66.4962 79.1938 64.5056 83.0136 61.5466 83.0136Z" fill="white"/>
<path d="M48.582 112.119L48.7434 112.442L48.6896 112.496C48.6358 112.388 48.582 112.227 48.582 112.119Z" fill="white"/>
<path d="M49.6572 111.474C48.4736 108.3 47.3976 104.857 48.1508 101.467C49.8724 99.2078 51.7554 97.0558 53.9074 95.1728C56.0056 93.4512 59.664 93.9354 59.0722 97.3248C58.05 100.338 55.9518 102.866 54.284 105.556C52.8314 107.547 51.3788 109.645 49.6572 111.474Z" fill="white"/>
<path d="M45.9453 104.533C45.9991 104.48 45.9991 104.426 46.0529 104.372V104.802C45.9991 104.749 45.9453 104.641 45.9453 104.533Z" fill="white"/>
<path d="M79.7859 159.517C79.5707 156.612 79.3017 153.707 78.7637 150.802C79.4631 149.887 80.2163 149.026 81.1847 148.381C83.6595 146.821 85.9191 149.457 85.3811 151.985C84.4665 156.128 81.9379 159.41 80.1087 163.283C79.9473 162.046 79.8397 160.755 79.7859 159.517Z" fill="white"/>
<path d="M75.481 128.905C74.7816 128.69 74.0822 128.69 73.3828 128.636C71.9302 128.421 70.4776 128.044 69.2402 127.291C71.2308 124.87 74.4588 119.974 77.633 119.544C78.8704 119.275 80.054 119.705 80.3768 121.05C80.6458 122.126 80.054 123.202 79.4084 124.063C78.2248 125.731 76.8798 127.345 75.5886 128.905C75.5348 128.905 75.5348 128.905 75.481 128.905Z" fill="white"/>
<path d="M63.484 116.584C60.6326 113.948 67.519 105.878 69.2406 103.403C69.2944 103.888 69.5634 104.264 69.8862 104.587C70.3166 105.017 70.8008 105.448 71.285 105.824C71.8768 106.416 72.5762 106.847 73.3294 107.116C73.5446 107.223 73.8136 107.277 74.0826 107.277C72.361 110.075 70.3704 112.657 68.2184 115.186C67.0886 116.584 65.1518 118.037 63.484 116.584Z" fill="white"/>
<path d="M125.461 85.9184C124.547 85.5956 123.794 84.8962 123.417 83.9816C122.825 82.5828 123.525 81.0764 124.063 79.7852C125.192 77.149 126.753 74.728 128.42 72.3608C129.443 70.8006 130.626 69.348 131.756 67.8954C132.079 67.5726 132.886 66.2276 133.262 66.9808C133.316 67.3574 133.047 67.6802 132.886 68.003C131.433 70.5316 129.819 72.9526 128.367 75.4812C128.689 75.3736 129.12 75.4274 129.443 75.5888C130.949 74.0824 136.813 69.0252 138.696 71.3924C138.965 71.8228 138.858 72.4146 138.427 72.6836C137.782 73.5444 137.19 74.4052 136.598 75.266C134.338 78.2788 131.971 81.2378 129.496 84.0892C128.474 85.3266 126.968 86.4564 125.461 85.9184ZM134.5 74.5128C134.338 74.6204 134.177 74.728 134.016 74.8356C134.177 74.9432 134.285 75.0508 134.446 75.1584C134.715 74.7818 135.038 74.4052 135.307 73.9748C135.038 74.19 134.769 74.3514 134.5 74.5128Z" fill="white"/>
<path d="M109.86 151.232C109.645 150.479 109.483 149.672 109.322 148.865C109.214 148.112 109.43 147.358 109.806 146.659C109.699 146.82 109.537 147.036 109.43 147.197C109.376 147.305 109.268 147.358 109.161 147.358C108.945 147.358 108.784 147.089 108.892 146.874C109.914 145.045 110.882 143.108 112.12 141.387C112.98 140.257 113.626 138.912 114.756 137.997C116.693 136.491 119.06 137.567 118.414 140.149C118.145 141.279 117.553 142.301 116.962 143.27C115.886 145.206 114.648 147.089 113.411 148.919C112.819 149.779 112.227 150.64 111.635 151.501C111.151 152.147 110.129 151.985 109.86 151.232Z" fill="white"/>
<path d="M109.429 102.274C108.515 101.628 108.73 100.283 108.73 99.3147C108.569 98.8843 108.569 98.4001 108.784 97.9697C108.838 96.8399 108.945 95.7101 109.483 94.6879C109.268 94.9569 108.784 95.7101 108.461 95.1721C108.353 94.9031 108.569 94.5803 108.676 94.3113C109.376 92.9125 110.29 91.5675 111.259 90.3301C111.904 89.3617 112.873 88.5547 114.056 88.2857C116.101 87.8015 117.177 89.3079 117.177 91.2447C117.069 93.3429 115.724 95.0645 114.702 96.7861C113.787 98.2925 112.765 99.7451 111.689 101.198C111.528 101.413 111.366 101.682 111.205 101.897C110.721 102.489 109.967 102.65 109.429 102.274Z" fill="white"/>
<path d="M88.717 100.928C82.3148 99.5297 93.021 83.7125 95.6572 81.5067C96.5718 80.8073 97.8092 80.6459 98.8852 81.0763C103.135 83.3897 96.1952 92.6971 94.7964 95.6561C93.3438 97.7005 91.676 101.682 88.717 100.928Z" fill="white"/>
<path d="M117.015 41.3187C117.661 43.0403 118.252 45.0309 117.445 46.8063C116.907 47.9899 116.262 49.1197 115.347 50.0343C113.572 51.7021 111.42 53.1547 110.505 55.4681C112.496 56.0061 117.123 56.0599 114.486 59.1265C113.679 60.1487 113.088 61.3323 112.442 62.5159C111.635 63.8609 110.774 65.0983 110.021 66.4433C109.106 67.6807 108.515 69.6713 106.632 68.7029C104.964 67.8421 103.888 66.2819 102.65 64.8831C101.79 63.9147 101.09 63.1615 100.176 62.3007C98.3464 61.0095 96.6248 59.6645 95.226 57.9429C94.688 57.4587 94.5804 56.5441 95.226 56.1137C96.033 55.5219 97.1628 55.5757 98.0774 55.2529C98.2926 53.7465 97.9698 52.2401 98.0236 50.7337C98.0236 49.4425 97.8622 48.1513 98.5078 46.9677C96.4634 45.4613 94.8494 42.8789 95.6564 40.2965C96.302 38.1445 98.185 36.2077 100.445 35.9925C101.09 33.6791 101.574 30.9891 103.242 29.3213C104.587 27.4921 106.739 26.2009 108.999 26.0395C110.182 25.9857 111.312 26.5775 112.227 27.2769C114.379 29.2675 114.164 32.4955 115.24 35.0779C116.1 37.0147 116.262 39.2743 117.015 41.3187Z" fill="white"/>
<path d="M115.939 37.7674C115.239 37.337 115.562 36.4224 116.369 36.3686C116.638 36.3148 116.907 36.3148 117.176 36.3148C117.338 36.261 117.499 36.261 117.66 36.3148C117.876 36.3686 118.145 36.3686 118.306 36.53C118.575 36.799 118.36 37.1756 117.983 37.2294C117.876 37.4984 117.607 37.606 117.338 37.6598C116.907 37.7674 116.369 37.9826 115.939 37.7674Z" fill="white"/>
<path d="M131.81 114.756C135.091 114.487 136.652 118.575 135.522 121.212C135.145 122.019 134.715 122.826 134.177 123.471C133.101 124.655 131.648 125.408 130.411 126.376C129.12 127.721 127.882 127.829 126.161 128.206C124.385 129.013 123.471 130.035 121.319 129.658C119.328 129.551 117.929 127.937 116.208 127.076C114.916 126.484 113.625 125.946 112.442 125.247C111.742 124.87 111.097 124.386 110.29 124.224C108.676 123.848 106.9 125.516 105.448 124.332C104.103 122.987 104.479 120.781 104.479 119.06C104.533 117.715 104.533 116.37 104.533 115.078C104.425 114.594 104.264 114.164 104.479 113.68C105.017 112.711 105.232 112.604 106.308 112.765H112.495C113.948 112.711 115.132 111.85 116.369 111.151C120.619 108.407 123.632 109.537 127.559 112.119C129.066 112.873 131.11 113.088 131.81 114.756Z" fill="white"/>
<path d="M205.031 147.789C207.721 147.573 207.667 151.017 207.452 152.846C207.291 154.137 207.022 155.536 205.946 156.397C204.816 157.257 203.309 157.58 201.964 157.365C200.942 157.634 199.866 157.257 199.005 156.666C198.629 156.666 198.199 156.773 197.822 156.773C197.069 156.773 196.262 156.558 195.562 156.235C195.24 156.02 194.863 155.966 194.486 155.859C193.034 155.213 191.205 155.321 190.021 154.137C187.062 151.77 184.479 148.918 182.058 146.013C181.198 145.045 180.176 144.184 179.207 143.323C178.777 142.947 178.292 142.624 178.239 141.978C178.131 140.741 179.099 140.472 179.96 139.934C180.498 139.557 180.982 139.181 181.467 138.75C182.22 138.051 183.134 137.513 183.726 136.652C183.995 136.275 184.103 135.791 184.372 135.415C185.179 134.339 186.954 134.715 187.223 136.06C187.6 136.383 188.03 136.652 188.407 136.921C189.591 136.06 190.935 135.522 192.28 134.984C193.841 134.392 195.778 133.747 197.284 134.823C198.952 135.791 199.92 137.62 201.373 138.858C201.911 139.288 202.449 139.719 202.987 140.149C203.525 140.418 204.009 140.741 204.385 141.225C205.515 142.731 203.955 144.076 202.395 143.969C201.319 143.915 200.297 143.538 199.328 143.054C198.629 142.731 197.983 142.301 197.23 142.032L197.122 142.14C197.983 143.108 198.844 144.076 199.651 145.099C200.082 145.637 200.512 146.282 200.404 147.035C200.942 147.251 201.373 147.627 201.749 148.111C202.018 148.004 202.287 147.789 202.556 147.681C203.363 147.197 204.17 147.789 205.031 147.789Z" fill="white"/>
<path d="M104.211 112.389C96.3561 111.904 88.4475 111.42 80.5927 110.506C78.2793 110.237 75.9121 109.752 73.7063 108.838C68.7029 106.793 66.2819 103.243 68.2725 97.9165C68.5953 97.1095 69.0795 96.3563 69.6713 95.7107C70.2093 95.0651 70.7473 94.4733 71.3391 93.9353C72.3075 93.1821 73.9215 91.2991 75.2665 91.5681C76.1273 91.9985 74.7285 93.1821 74.3519 93.5587C73.4373 94.4195 72.5227 95.2265 71.7157 96.1949C68.3801 99.6919 68.5953 104.426 73.2759 106.578C76.2349 108.085 79.5705 108.515 82.8523 108.838C86.1341 109.322 89.5235 109.537 92.8053 109.806C96.7865 110.075 100.714 110.398 104.695 110.667C105.717 110.775 105.717 112.335 104.641 112.389C104.587 112.389 104.426 112.389 104.211 112.389Z" fill="black"/>
<path d="M91.5148 131.003C76.0742 131.057 58.374 129.335 50.6806 113.894C49.0666 111.312 48.152 108.299 47.9906 105.233C47.7216 100.767 49.1204 96.4093 50.3578 92.1591C51.7566 88.4469 53.7472 85.0037 56.0606 81.7757C57.7822 79.3009 59.6114 76.8261 61.871 74.7279C65.637 70.9619 70.1024 67.8415 74.4064 64.8287C79.1946 61.4931 84.4132 58.4265 89.9546 56.5973C90.9768 56.1669 100.123 53.5307 98.7778 55.7365C94.7428 57.2967 90.3312 58.0499 86.4038 59.9329C71.5012 67.6801 56.0606 78.8705 51.2724 95.8175C49.2818 101.467 49.0128 107.976 52.3484 113.195C54.1238 116.584 56.6524 119.543 59.6114 121.964C68.865 129.55 83.7676 129.604 95.1732 128.851C96.7872 128.689 98.4012 128.582 100.015 128.474C101.575 128.259 103.136 127.936 104.696 128.044C105.18 127.99 105.826 128.044 105.987 128.582C106.471 130.196 102.275 130.357 101.253 130.465C97.9708 130.734 94.7428 131.218 91.5148 131.003Z" fill="black"/>
<path d="M105.018 129.228C104.695 128.044 104.641 126.807 104.587 125.569C104.372 122.341 104.372 119.113 104.211 115.885C104.157 114.433 104.318 112.98 104.211 111.581C104.318 110.721 105.609 110.667 105.771 111.528C105.878 113.787 105.986 116.047 106.04 118.36C105.986 119.275 107.116 131.057 105.018 129.228Z" fill="black"/>
<path d="M80.8079 168.125C80.7003 168.125 80.6465 168.018 80.6465 167.91C80.3237 167.695 80.3237 167.318 80.2161 166.996C80.0009 166.027 79.7857 165.059 79.5705 164.09C78.8711 160.862 78.6021 157.581 78.1717 154.299C77.5261 149.08 76.8805 143.969 76.3963 138.751C76.1811 135.953 75.6431 133.155 75.3741 130.358C75.1589 128.475 77.3647 128.313 77.5799 130.196C79.0325 140.58 79.3015 151.071 80.9693 161.4C81.0769 162.261 81.1307 163.122 81.2383 163.983C81.2921 164.897 82.0991 167.803 80.9155 168.018C80.9693 168.018 80.9155 168.125 80.8079 168.125Z" fill="black"/>
<path d="M76.0197 108.999C75.3203 107.977 75.3741 106.578 75.1051 105.395C74.1367 98.2393 73.7601 91.0301 73.1145 83.8209C73.0607 83.3367 73.4373 82.9063 73.8677 82.8525C74.3519 82.7449 74.8899 83.1215 74.9975 83.6057C75.4279 85.7577 75.6969 87.9097 75.8583 90.0617C76.2349 94.6885 77.0419 99.3153 76.9343 103.996C76.7729 104.695 77.4185 110.183 76.0197 108.999Z" fill="black"/>
<path d="M139.396 164.951C138.535 164.951 138.965 162.583 138.804 161.938C136.867 134.769 138.642 107.492 137.889 80.2695C137.943 79.5163 139.127 79.3549 139.234 80.2695C141.117 99.4223 140.256 118.629 139.987 137.782C139.718 146.39 140.203 155.051 139.934 163.659C139.934 164.197 140.041 164.951 139.396 164.951Z" fill="black"/>
<path d="M84.089 168.179C83.2282 168.017 80.5382 168.609 80.4844 167.479C80.4844 166.995 81.0224 166.834 81.399 166.726C83.9814 166.027 86.7252 166.027 89.4152 165.758C102.22 165.166 115.024 163.713 127.775 163.498C131.272 163.337 134.769 162.852 138.319 162.852C139.611 162.53 140.525 164.251 139.18 164.897C120.834 165.865 102.435 167.156 84.089 168.179Z" fill="black"/>
<path d="M185.234 134.554C184.804 134.231 184.588 133.747 184.212 133.316C180.177 127.882 176.411 122.233 172.752 116.531C167.372 108.837 162.315 100.929 156.505 93.5042C146.014 79.1934 131.918 63.2686 114.595 57.6196C113.411 57.243 112.227 57.0278 111.044 56.705C110.613 56.5974 110.183 56.4898 109.914 56.2208C109.699 56.0056 109.753 55.5214 110.022 55.36C111.851 54.3378 116.854 56.3822 118.737 57.0816C120.082 57.6196 121.427 58.1576 122.772 58.7494C126.431 60.4172 129.605 62.8382 132.779 65.2592C142.086 72.845 150.372 81.6682 157.312 91.4598C162.907 98.5076 167.803 106.04 172.699 113.572C177.218 120.135 181.952 126.537 186.418 133.101C186.74 133.531 186.794 134.177 186.31 134.5C186.095 134.823 185.557 134.823 185.234 134.554Z" fill="black"/>
<path d="M173.667 144.991C162.476 132.563 151.878 119.651 141.279 106.685C140.526 105.556 139.45 104.533 139.127 103.188C139.181 102.65 139.88 102.435 140.203 102.866C152.631 115.778 163.068 130.411 174.904 143.807C175.711 144.614 174.42 145.852 173.667 144.991Z" fill="black"/>
<path d="M173.99 144.884C174.044 144.131 174.797 143.646 175.174 143.055C178.348 139.611 182.006 136.706 185.288 133.371C186.041 132.779 187.064 133.801 186.472 134.608C185.719 135.361 184.965 136.114 184.212 136.921C181.953 139.235 179.478 141.494 177.003 143.485C176.357 143.862 174.421 146.39 173.99 144.884Z" fill="black"/>
<path d="M107.492 70.3704C102.865 66.4968 98.5612 62.0852 94.3648 57.7274C93.9344 57.4046 93.3964 56.8666 93.8806 56.3286C94.5262 55.6292 95.0642 56.3286 95.5484 56.8128C96.5168 57.6736 97.4852 58.5882 98.3998 59.449C101.413 62.5694 104.856 65.2594 107.653 68.5412C108.353 67.3038 109.267 66.2278 109.967 65.0442C110.989 63.484 111.904 61.8162 112.98 60.256C113.84 59.18 114.325 57.4584 115.777 57.0818C116.961 57.3508 115.562 58.6958 115.293 59.2876C114.378 60.9554 113.249 62.4618 112.28 64.0758C111.312 65.6898 110.236 67.1962 109.267 68.7564C108.837 69.3482 108.568 70.8008 107.492 70.3704Z" fill="black"/>
<path d="M112.443 165.489C112.12 165.489 111.851 165.274 111.797 164.951C112.066 160.324 110.668 155.805 109.269 151.447C106.041 141.978 110.345 133.209 111.152 123.794C111.636 123.794 112.174 123.848 112.658 123.955C112.174 130.358 110.13 136.545 109.753 142.947C109.592 146.121 110.237 149.241 111.044 152.254C112.389 156.343 113.842 160.647 113.089 165.059C112.981 165.274 112.712 165.489 112.443 165.489Z" fill="black"/>
<path d="M110.504 112.227C109.267 106.04 107.492 99.7996 107.814 93.4512C108.137 87.6946 110.558 82.0456 109.644 76.2352C109.482 74.4598 109.106 72.6306 108.03 71.178C107.223 70.1558 106.2 69.295 105.609 68.1114C105.501 67.7886 105.878 67.4658 106.147 67.681C109.052 68.8646 110.72 71.6084 111.15 74.675C112.226 81.131 109.536 87.3718 109.213 93.774C109.052 100.23 111.042 106.525 112.226 112.819H111.204C110.989 112.819 110.773 112.819 110.666 112.981C110.612 112.712 110.558 112.496 110.504 112.227Z" fill="black"/>
<path d="M87.6406 109.752C85.381 106.524 84.036 102.597 82.6372 98.9924C82.5834 98.7234 82.7986 98.5082 83.0676 98.562C83.3366 98.6158 83.498 98.8848 83.6056 99.1C83.767 99.369 83.9284 99.638 84.0898 99.907C85.65 102.974 87.4792 105.933 88.6628 109.214C88.878 109.752 88.0172 110.237 87.6406 109.752Z" fill="black"/>
<path d="M104.318 138.105C102.435 135.738 100.928 133.102 99.4757 130.412C99.1529 129.712 100.067 129.174 100.552 129.712C102.058 132.079 103.242 134.716 104.587 137.19C104.694 137.352 104.802 137.567 104.802 137.782C104.856 138.051 104.533 138.266 104.318 138.105Z" fill="black"/>
<path d="M124.117 150.586C123.848 149.994 124.386 149.402 124.494 148.811C126.915 143.108 129.282 137.405 131.972 131.864C132.134 131.541 132.51 131.379 132.833 131.541C133.963 132.025 131.757 135.092 131.596 136.06C130.95 137.297 125.247 152.523 124.117 150.586Z" fill="black"/>
<path d="M257.38 144.346C254.152 145.96 252.699 149.618 252.161 153.008C251.677 155.805 252.107 158.764 253.129 161.4C246.673 163.714 241.078 171.73 242.262 178.724C238.55 178.832 235.214 180.607 232.201 182.651C228.973 184.75 225.853 187.386 224.185 190.883C223.97 191.421 223.27 192.497 223.055 193.358C217.46 192.551 211.757 192.82 206.162 193.627C200.352 194.434 194.595 196.155 189.699 199.437C194.326 191.044 199.975 183.082 206.861 176.411C207.453 176.142 207.292 175.173 207.184 174.581C206.27 165.973 207.238 157.258 209.767 148.973C209.928 148.435 210.143 147.95 210.251 147.466C210.251 147.359 210.251 147.197 210.197 147.143C213.048 145.691 215.577 143.754 218.428 142.301C221.818 140.311 225.261 138.428 228.758 136.652C229.511 136.222 230.211 135.738 230.91 135.307C231.233 135.146 231.609 134.985 231.878 134.823C240.433 137.728 248.933 140.956 257.38 144.346Z" fill="#FBBDA9"/>
<path d="M257.379 144.346C252.644 142.57 248.017 140.58 243.337 138.804C239.571 137.352 235.697 136.222 231.931 134.769C231.662 134.984 231.286 135.092 230.963 135.253C230.21 135.684 229.51 136.168 228.811 136.598C225.314 138.374 221.871 140.257 218.481 142.247C215.684 143.754 213.101 145.637 210.25 147.089C210.304 147.197 210.304 147.305 210.304 147.412C210.196 147.95 209.981 148.434 209.82 148.919C207.291 157.15 206.323 165.919 207.237 174.527C207.291 175.119 207.56 176.088 206.914 176.357C200.028 183.028 194.379 190.936 189.752 199.383C190.882 198.576 192.119 198.038 193.303 197.339C197.338 195.348 201.749 194.218 206.215 193.573C211.81 192.766 217.513 192.497 223.108 193.304C223.323 192.443 223.915 191.636 224.238 190.829C225.906 187.332 229.026 184.696 232.254 182.597C235.267 180.553 238.602 178.831 242.315 178.67C241.938 177.271 242.153 175.657 242.422 174.258C243.606 168.556 247.749 163.445 253.182 161.4C252.16 158.764 251.676 155.805 252.214 153.007C252.698 149.618 254.097 145.96 257.379 144.346ZM259.584 143.861C260.122 144.184 259.907 144.83 259.477 145.045C255.173 146.82 253.935 151.931 253.882 156.182C253.989 157.903 254.204 159.625 254.42 161.293V161.723C254.581 162.1 254.42 162.53 254.043 162.691C253.72 162.853 253.344 162.907 253.021 163.068C252.052 163.552 251.03 163.983 250.223 164.736C248.448 166.35 246.78 168.125 245.65 170.223C244.198 172.913 243.66 176.034 243.337 179.1C243.283 179.477 243.068 179.961 242.584 179.961C236.558 180.714 231.501 184.749 227.466 189.053C226.121 190.614 225.206 192.443 224.184 194.218C224.077 194.487 223.861 194.702 223.592 194.702C223.377 194.81 223.162 194.81 222.893 194.756C221.871 194.649 220.687 194.595 219.719 194.541C209.335 194.057 198.575 195.725 189.483 201.051C189.16 201.212 188.515 201.804 188.192 201.266C188.084 201.266 188.031 201.212 187.977 201.105L188.138 201.212C186.901 200.298 190.828 193.895 191.42 192.766C195.294 186.363 199.974 180.392 205.516 175.388C205.085 173.828 205.193 171.084 205.085 170.223C204.601 162.745 205.623 155.106 208.367 148.112C208.421 148.058 208.475 148.004 208.528 147.896C208.69 147.681 208.797 147.466 208.959 147.251C209.174 146.982 209.335 146.659 209.497 146.336C209.551 146.229 209.604 146.121 209.658 146.013C214.662 142.301 219.988 139.073 225.529 136.168C227.466 135.2 229.457 134.124 231.447 133.424C232.9 133.317 234.352 133.855 235.751 134.231C243.929 136.76 251.837 140.149 259.584 143.861Z" fill="black"/>
<path d="M225.207 142.14C222.463 142.086 223.163 139.073 224.077 137.406C225.853 137.836 228.543 135.469 230.049 134.554C230.641 134.285 231.233 134.016 231.825 133.855C232.578 133.747 233.331 134.178 234.03 134.393C234.837 134.716 235.644 134.931 236.451 135.146C233.654 137.997 229.296 142.086 225.207 142.14Z" fill="white"/>
<path d="M248.233 155.698C243.069 154.891 246.458 148.811 248.987 146.821C247.48 147.305 245.974 148.004 244.36 147.735C241.347 147.09 242.477 143.969 243.822 142.248C244.844 140.903 245.974 139.611 247.211 138.428C248.126 138.858 248.987 139.45 249.901 139.88C251.73 140.687 253.56 141.494 255.443 142.194H255.496C255.55 142.194 255.604 142.248 255.712 142.248C255.658 142.248 255.604 142.194 255.55 142.194C256.949 142.678 258.24 143.324 259.531 143.915C259.478 143.969 259.424 144.023 259.37 144.023L259.478 143.915C257.971 144.991 256.626 146.336 255.765 148.004C254.905 149.242 254.205 150.587 253.936 152.093C253.775 152.9 253.667 153.761 253.882 154.568C251.999 155.429 250.17 155.913 248.233 155.698Z" fill="white"/>
<path d="M255.334 142.193C255.28 142.193 255.227 142.14 255.227 142.14C255.28 142.14 255.334 142.193 255.334 142.193C255.388 142.193 255.334 142.193 255.334 142.193Z" fill="white"/>
<path d="M224.884 177.54C224.238 175.603 225.422 173.236 226.39 171.568C224.131 173.075 221.71 174.743 218.966 175.227C216.437 175.603 214.124 173.882 215.792 171.353C216.007 171.03 216.276 170.761 216.491 170.439C216.491 170.331 216.599 170.223 216.706 170.223C219.289 167.587 222.463 165.597 225.691 163.767C228.704 161.938 231.878 160.055 235.429 159.517C237.258 159.194 239.087 160.486 238.872 162.476C238.71 163.929 237.742 165.166 236.881 166.35C239.356 164.897 242.423 162.691 245.382 162.53C247.265 162.422 248.879 163.176 249.201 165.112C246.834 167.211 244.844 169.363 243.983 172.483C241.024 175.173 227.036 183.512 224.884 177.54Z" fill="white"/>
<path d="M205.838 174.635C205.784 174.043 205.784 173.505 205.73 172.913C205.73 171.999 205.784 171.084 205.784 170.17V170.277C205.784 168.34 205.838 166.404 205.999 164.521C206.215 162.799 206.43 161.024 206.591 159.248C206.699 158.764 206.537 158.226 206.161 157.849C208.958 155.536 213.585 151.716 217.136 151.178C218.589 150.909 220.095 151.609 220.31 153.223C220.848 156.397 214.661 161.239 212.402 163.337C213.585 163.229 214.338 164.413 214.338 165.489C214.285 167.426 212.724 168.932 211.487 170.277C209.712 172.106 207.936 173.774 205.838 175.173C205.946 175.065 205.838 174.85 205.838 174.635Z" fill="white"/>
<path d="M190.129 198.361C190.99 195.241 192.227 192.174 193.572 189.269C197.553 186.633 203.955 183.189 208.69 183.62C210.573 183.835 211.81 185.288 211.111 187.224C210.411 188.731 209.12 189.914 207.937 191.044C206.215 192.658 204.386 194.165 202.449 195.617C200.297 196.209 198.199 197.016 196.047 197.662C194.971 197.931 193.895 198.253 192.873 198.684C191.797 199.114 190.667 199.437 189.645 200.029C189.806 199.437 189.967 198.899 190.129 198.361Z" fill="white"/>
<path d="M208.798 148.111C208.691 148.111 208.583 148.058 208.422 148.058C208.529 147.95 208.583 147.789 208.691 147.681C208.798 147.52 208.852 147.412 208.96 147.251C209.175 146.982 209.336 146.659 209.498 146.336C210.143 146.874 209.767 148.165 208.798 148.111Z" fill="black"/>
<path d="M237.795 168.233C236.612 167.049 235.643 165.704 234.621 164.413C233.491 163.122 232.415 161.777 231.286 160.486C228.488 159.195 225.583 158.119 222.678 157.043C222.355 156.935 222.032 156.774 221.763 156.612C221.655 156.558 221.602 156.505 221.602 156.397C221.602 156.236 221.709 156.074 221.871 156.074C225.152 157.258 228.38 158.388 231.555 159.84C231.985 159.786 232.2 160.217 232.469 160.486C233.653 161.777 234.729 163.122 235.859 164.413C236.666 165.435 237.526 166.458 238.28 167.426C238.495 167.587 238.602 167.91 238.387 168.125C238.226 168.287 237.957 168.341 237.795 168.233Z" fill="black"/>
<path d="M222.032 144.184C221.925 143.861 222.193 143.7 222.462 143.7C228.165 142.731 233.922 142.462 239.678 141.87C240.109 141.817 240.216 142.462 239.786 142.57C238.979 142.677 238.226 142.839 237.419 142.893C234.998 143.162 232.577 143.269 230.156 143.484C227.627 143.753 225.045 144.022 222.516 144.345C222.355 144.453 222.086 144.453 222.032 144.184Z" fill="black"/>
<path d="M200.781 192.389C200.512 192.067 200.942 191.744 201.158 191.529C204.439 188.085 207.721 184.696 210.949 181.199C211.38 180.769 212.133 181.36 211.702 181.898C211.111 182.598 210.465 183.297 209.819 183.997C207.129 186.579 204.655 189.377 201.965 191.905C201.696 192.12 201.211 192.82 200.781 192.389Z" fill="black"/>
<path d="M108.784 113.195H108.623C108.623 113.034 108.623 112.873 108.677 112.711C108.892 111.958 108.946 111.205 109.161 110.452C109.269 110.075 109.43 109.752 109.538 109.429C109.645 109.16 109.699 108.838 109.914 108.569C110.291 108.138 110.99 108.192 111.313 108.622C113.411 109.16 115.456 109.914 117.446 110.667C116.478 110.774 115.671 111.42 114.81 111.85C114.164 112.173 113.519 112.442 112.819 112.657C112.12 112.873 111.367 112.765 110.614 112.873C110.129 112.926 109.645 112.926 109.215 113.195C109.107 113.195 108.946 113.195 108.784 113.195Z" fill="black"/>
<path d="M259.585 143.861C251.838 140.149 243.929 136.76 235.698 134.231C234.406 133.854 233.115 133.424 231.716 133.37C231.394 133.37 231.125 133.424 230.856 133.585C229.026 134.339 227.251 135.253 225.476 136.168C219.988 139.073 214.608 142.301 209.605 146.013C209.605 146.067 209.551 146.121 209.551 146.175C209.443 146.39 209.336 146.605 209.228 146.766C209.389 146.497 209.497 146.282 209.605 146.013C209.497 146.067 209.389 146.175 209.336 146.228C204.978 145.152 200.512 144.399 196.208 143.323C186.686 140.795 177.109 138.858 167.425 136.921C165.166 134.392 162.422 132.294 159.947 129.981C156.934 127.345 154.137 124.439 150.855 122.126C146.928 120.996 142.893 120.566 138.858 119.759C136.706 119.382 134.5 118.844 132.348 118.468C132.348 118.414 132.402 118.414 132.402 118.36C132.025 118.091 132.025 117.607 131.81 117.284C131.756 117.176 131.756 117.069 131.648 117.015C131.487 116.907 131.326 116.8 131.379 116.638C130.949 116.423 130.519 116.262 130.142 116.047C129.658 116.369 129.012 116.208 128.474 116.154C128.151 116.154 127.882 116.047 127.667 115.831C126.699 115.831 125.784 115.724 124.816 115.562C124.385 115.509 123.955 115.401 123.632 115.132C123.363 115.132 123.04 115.186 122.771 115.024C122.933 116.047 123.148 117.069 123.309 118.145C123.363 118.414 123.363 118.683 123.417 118.952C125.677 119.866 128.044 120.458 130.303 121.211C131.164 121.588 131.595 120.942 131.756 120.189C137.405 121.319 143.108 122.072 148.649 123.525C149.295 123.74 149.994 123.686 150.532 124.17C155.643 128.259 160.324 132.94 165.22 137.351C165.865 138.051 166.457 138.643 167.479 138.75C181.144 141.709 194.594 145.421 208.313 148.058C208.421 147.95 208.475 147.842 208.582 147.681C208.69 147.573 208.744 147.412 208.851 147.304C208.959 147.143 209.067 146.982 209.174 146.82C209.067 146.982 208.959 147.143 208.851 147.304C208.744 147.52 208.582 147.735 208.421 147.896C208.367 147.95 208.367 148.004 208.313 148.004C207.345 150.102 206.915 152.415 206.215 154.621C204.709 161.561 204.44 168.179 205.462 175.334C199.921 180.391 195.24 186.309 191.366 192.712C190.775 193.841 186.847 200.244 188.085 201.158C188.031 201.104 187.977 201.104 187.923 201.051C187.977 201.104 188.085 201.158 188.138 201.212C188.407 201.75 189.107 201.158 189.43 200.997C198.522 195.671 209.228 194.003 219.665 194.487C220.634 194.541 221.817 194.595 222.839 194.702C223.055 194.81 223.324 194.756 223.539 194.648C223.808 194.648 224.077 194.433 224.131 194.164C225.099 192.389 226.067 190.56 227.412 188.999C231.447 184.642 236.505 180.66 242.53 179.907C243.014 179.907 243.23 179.423 243.283 179.046C243.606 176.034 244.144 172.913 245.597 170.169C246.78 168.071 248.394 166.242 250.17 164.682C250.977 163.982 251.999 163.498 252.967 163.014C253.29 162.853 253.667 162.799 253.99 162.637C254.312 162.422 254.474 162.046 254.366 161.669V161.239C254.151 159.517 253.936 157.849 253.828 156.128C253.882 151.877 255.119 146.766 259.423 144.991C259.908 144.83 260.177 144.13 259.585 143.861ZM219.396 192.981C209.282 192.604 198.36 193.788 189.699 199.437C194.325 191.044 199.974 183.081 206.861 176.41C207.453 176.141 207.291 175.173 207.184 174.581C206.323 166.726 207.076 158.71 209.174 151.07C209.443 156.343 210.196 161.561 211.38 166.726C212.348 170.654 213.801 174.42 215.146 178.239C217.137 183.35 218.912 188.677 221.979 193.25C221.172 193.142 220.257 193.034 219.396 192.981ZM240.002 178.993C237.096 179.477 234.622 181.037 232.201 182.597C228.973 184.695 225.852 187.332 224.184 190.829C224.023 191.259 223.539 192.066 223.216 192.819C221.225 189.591 219.665 186.148 218.266 182.597C216.276 177.271 214.124 171.999 212.671 166.457C211.272 160.916 210.358 155.159 210.25 149.456C212.886 154.352 215.899 159.194 219.827 163.175C221.172 164.198 223.108 163.929 224.669 163.767C226.014 166.565 227.305 169.47 228.704 172.268C232.308 175.388 236.989 176.679 241.185 178.777C240.809 178.885 240.432 178.939 240.002 178.993ZM248.502 164.144C244.521 167.587 241.831 172.537 242.1 178.024C240.055 177.002 238.011 175.98 235.913 175.173C233.815 174.312 231.932 173.075 229.995 171.999C229.403 171.837 229.242 171.353 229.026 170.815C228.004 168.233 226.767 165.758 225.637 163.229C225.422 162.422 224.453 162.745 223.862 162.745C222.893 162.745 221.979 162.799 221.01 162.584C220.526 162.476 220.311 161.938 219.988 161.669C216.383 157.473 213.371 152.738 210.627 147.896C216.007 147.95 221.441 147.789 226.821 148.327C235.644 152.039 243.714 157.311 252.053 161.992C250.762 162.476 249.524 163.175 248.502 164.144ZM255.012 146.175C251.676 150.371 251.192 156.397 253.075 161.292C244.521 156.289 236.236 150.586 226.928 147.035C221.602 146.551 216.276 146.605 210.95 146.713C213.532 145.368 215.845 143.592 218.374 142.247C221.763 140.257 225.207 138.374 228.704 136.598C229.457 136.168 230.156 135.684 230.856 135.253C231.178 135.092 231.555 134.93 231.824 134.769C240.432 137.728 248.879 140.956 257.325 144.345C256.464 144.83 255.657 145.421 255.012 146.175Z" fill="black"/>
<path d="M207.022 147.466C206.377 146.82 205.139 146.766 204.494 147.412C203.956 146.444 202.772 146.282 201.965 146.982C201.696 146.551 201.212 146.121 200.728 145.959C199.598 144.507 198.253 143.216 196.962 141.924C197.016 141.871 197.069 141.871 197.123 141.817C198.576 143.323 200.62 144.668 202.772 144.668C204.386 144.883 206.162 143.431 205.301 141.817C204.924 141.01 204.117 140.472 203.31 140.149C202.934 140.041 202.503 139.665 202.18 139.396C200.674 138.051 200.19 135.899 198.576 134.661C195.455 132.671 191.42 134.231 188.838 136.437C188.569 135.791 187.977 135.307 187.601 134.769C186.847 134.07 185.771 132.402 184.803 132.187C182.974 132.294 186.955 136.76 187.87 137.405C187.654 137.728 187.224 138.32 187.654 138.643C187.87 138.75 188.139 138.535 188.3 138.427C189.645 137.298 191.044 136.275 192.658 135.63C194.487 134.984 196.531 134.769 198.145 136.06C199.168 136.975 199.706 138.212 200.459 139.288C200.943 139.934 201.481 140.526 202.127 140.956C202.718 141.386 203.525 141.548 203.956 142.14C204.117 142.409 204.386 142.731 204.117 143C203.848 143.377 203.418 143.485 202.987 143.485C201.158 143.538 199.598 142.14 198.253 141.064C198.092 140.902 197.93 140.687 197.769 140.526C197.5 140.257 197.069 140.203 196.747 140.472C196.424 140.741 196.262 141.01 195.886 141.279C195.294 141.763 194.595 142.14 193.895 142.57C193.303 142.893 193.734 143.754 194.326 143.538C194.917 143.269 195.563 142.947 196.101 142.57C197.069 143.861 198.307 144.991 199.383 146.228C199.329 146.282 199.275 146.282 199.221 146.336C198.307 144.614 196.262 145.099 195.348 146.551C194.379 147.95 194.164 149.833 192.927 151.07C192.819 151.124 192.765 151.232 192.765 151.393C193.088 152.254 194.487 150.64 194.756 150.263C195.186 149.618 195.563 148.972 195.886 148.327C196.209 147.735 197.123 146.013 197.93 146.82C198.683 147.842 198.414 149.241 198.092 150.371C197.016 153.384 193.196 155.859 190.291 153.707C189.806 153.384 189.484 152.846 189.053 152.415C188.569 151.77 187.977 151.178 187.493 150.586C186.471 149.51 185.502 148.327 184.426 147.251C183.566 146.497 182.651 145.69 181.844 144.83C180.929 143.861 179.961 142.893 178.993 141.978C178.347 141.494 177.594 142.301 178.078 142.893C178.777 143.807 179.692 144.561 180.499 145.421C182.005 147.089 183.727 148.488 185.072 150.263C185.825 151.124 186.632 152.039 187.385 152.9C188.031 153.653 188.623 154.46 189.484 154.998C190.775 155.859 192.389 156.02 193.841 155.697C194.702 157.257 196.854 157.58 198.414 156.827C199.383 157.688 200.566 158.118 201.75 157.419C203.31 158.495 205.677 158.118 206.753 156.558C208.152 154.514 208.852 149.456 207.022 147.466ZM195.724 155.536C195.509 155.428 195.348 155.321 195.186 155.159C197.984 153.922 200.028 150.586 199.544 147.466C200.889 146.874 201.104 148.865 200.997 149.833C200.835 152.254 198.791 156.612 195.724 155.536ZM199.437 156.02C201.589 154.245 202.611 150.855 202.342 148.111C203.418 147.466 203.741 149.349 203.794 150.048C204.279 152.577 202.987 155.59 200.459 156.397C200.082 156.504 199.759 156.289 199.437 156.02ZM206.431 153.545C206 155.052 204.924 156.827 203.095 156.343C205.139 154.298 205.839 151.07 204.978 148.327C205.893 148.165 206.323 148.542 206.538 149.403C206.915 150.748 206.915 152.254 206.431 153.545Z" fill="black"/>
<path d="M184.694 132.187H184.641C184.641 132.24 184.694 132.24 184.694 132.187C184.694 132.24 184.694 132.187 184.694 132.187Z" fill="black"/>
<path d="M190.451 147.681C190.935 147.574 191.419 147.466 191.904 147.358C192.764 147.089 193.733 147.036 194.594 146.659C195.024 146.39 194.755 145.691 194.217 145.798C193.195 146.067 192.119 146.336 191.097 146.713C190.559 146.874 189.967 147.036 189.429 147.251C189.267 147.305 189.106 147.358 189.052 147.52C188.891 148.273 190.074 147.681 190.451 147.681Z" fill="black"/>
<path d="M135.737 116.208C134.822 115.239 133.638 114.486 132.293 114.217C131.917 112.765 130.357 112.28 129.065 111.796C127.129 110.935 125.461 109.59 123.578 108.676C120.942 107.546 118.036 108.891 115.669 110.128C114.539 110.774 113.41 111.473 112.118 111.796C111.688 111.796 111.258 111.742 110.881 111.742C108.083 111.796 105.232 111.258 102.488 111.904C102.273 111.958 101.95 111.958 101.789 112.119C101.52 112.388 101.789 112.765 102.112 112.765C105.501 113.464 108.998 113.249 112.441 113.141C115.992 112.549 119.543 108.676 123.201 110.182C124.546 110.882 125.784 111.796 127.129 112.496C127.613 112.765 128.151 113.034 128.689 113.249C129.388 113.572 130.733 113.787 130.841 114.701C130.733 116.369 128.85 115.67 127.774 115.562C126.429 115.347 125.084 114.97 123.793 114.54C123.685 114.11 123.578 113.679 123.309 113.303C123.147 113.141 122.932 113.195 122.771 113.303C122.609 113.464 122.556 113.679 122.556 113.894C122.394 115.508 122.932 117.069 123.094 118.683C123.094 119.059 123.578 119.382 123.954 119.543C124.654 119.92 125.299 120.243 126.053 120.512C127.344 121.05 128.689 121.642 130.088 121.803C130.518 121.911 130.948 121.588 131.271 121.319C131.917 120.35 132.885 119.328 132.67 117.983C132.562 117.445 132.024 117.176 131.594 116.853C132.024 116.423 132.347 115.831 132.401 115.186C133.8 115.993 135.36 117.23 135.414 118.952C135.306 120.727 134.069 122.287 132.778 123.471C132.293 123.794 131.809 124.063 131.271 124.278C130.948 124.439 130.518 124.493 130.249 124.708C129.872 125.139 129.55 125.73 129.065 126.107C128.527 126.484 127.882 126.806 127.182 126.86C126.913 126.86 126.644 126.914 126.429 126.914C126.214 126.86 125.999 126.86 125.837 126.968C125.407 127.237 125.138 127.721 124.761 128.044C123.363 129.55 121.211 129.012 119.543 128.367C117.552 127.56 115.831 126.215 114.163 124.923C113.625 124.493 113.141 124.063 112.495 123.74C111.742 123.525 110.935 123.686 110.182 123.686C108.299 123.74 106.469 124.009 104.586 124.224C103.726 124.332 102.865 124.385 102.058 124.601C101.358 124.762 101.466 125.73 102.165 125.73C104.102 125.73 106.039 125.461 108.03 125.3C108.621 125.246 109.267 125.246 109.859 125.192C110.451 125.139 111.042 125.085 111.634 125.085C111.903 125.085 112.118 125.246 112.334 125.408C115.239 127.613 118.252 130.142 122.018 130.519C123.847 130.68 125.891 129.819 126.698 128.098C127.667 128.151 128.689 128.098 129.55 127.613C130.303 127.183 131.002 126.484 131.271 125.623C133.423 125.515 134.445 124.547 135.575 122.825C136.759 120.781 137.512 118.252 135.737 116.208ZM130.948 118.844C130.787 119.382 130.518 119.866 130.141 120.297C129.765 120.189 129.388 120.028 129.012 119.92C128.527 119.759 127.989 119.651 127.505 119.49C126.429 119.167 125.407 118.521 124.385 118.145C124.331 117.607 124.277 117.015 124.223 116.477C126.214 117.015 128.312 117.553 130.41 117.445C130.626 117.714 130.895 117.822 131.056 118.091C131.217 118.306 131.002 118.629 130.948 118.844Z" fill="black"/>
<path d="M108.03 38.3594C104.64 37.1758 108.891 33.1946 111.365 34.163C113.464 35.0238 112.872 36.9068 111.15 37.8214C110.236 38.3594 109.106 38.6284 108.03 38.3594ZM109.16 37.4986C110.128 37.391 112.226 36.584 111.796 35.3466C110.72 34.432 108.998 35.1852 108.191 36.0998C107.976 36.3688 107.707 36.7454 107.761 37.122C108.084 37.4448 108.622 37.5524 109.16 37.4986Z" fill="black"/>
<path d="M110.074 36.5304C109.536 36.2614 109.321 35.4544 109.644 34.9702C109.859 34.5936 110.343 34.1094 110.774 34.3246C113.033 34.486 111.742 37.2298 110.074 36.5304Z" fill="black"/>
<path d="M109.052 39.5428C108.837 39.489 108.46 39.5966 108.406 39.3276C108.406 39.22 108.514 39.1124 108.621 39.1124C109.913 39.1124 111.204 38.682 112.28 37.9288C112.387 37.8212 112.603 37.875 112.656 37.9826C112.872 38.413 112.118 38.6282 111.903 38.8434C111.042 39.3814 110.074 39.5966 109.052 39.5428Z" fill="black"/>
<path d="M120.028 24.3718C119.92 22.3812 118.037 21.4128 116.208 22.0046C116.692 14.2574 106.47 12.8586 101.306 16.4632C100.176 17.4316 99.3689 18.669 98.7233 20.014C95.9257 17.7006 91.6217 19.0994 89.5235 21.7356C88.5013 22.9192 88.0709 24.4794 87.4253 25.8782C86.9411 27.008 86.1879 27.1156 85.2195 27.6536C78.4407 31.581 83.4441 40.2966 89.6311 41.5878C88.1785 46.376 92.9667 50.8414 97.6473 49.7116C97.6473 51.4332 97.7011 53.101 97.7549 54.8226C97.7549 55.3068 97.8087 55.7372 97.8625 56.2214C97.9163 56.598 97.8625 57.3512 98.4005 57.4588C98.9385 57.4588 98.8847 56.7056 98.9385 56.329C99.0461 53.8542 99.0461 51.3256 99.0461 48.8508C99.2075 48.528 99.3689 48.2052 99.5303 47.9362C99.8531 47.3444 100.23 46.7526 100.606 46.1608C100.768 45.838 101.037 45.6228 101.037 45.2462C101.844 45.3 102.704 45.0848 103.296 44.5468C103.511 44.2778 103.888 44.0088 103.834 43.6322C103.78 43.3632 103.511 43.0942 103.189 43.148C102.812 43.2018 102.651 43.686 102.274 43.7936C101.682 44.1164 100.983 44.0626 100.337 43.9012C99.4765 43.5246 98.9923 42.61 98.8309 41.7492C98.6695 40.6732 98.7233 38.7902 99.7993 38.2522C101.306 37.4452 102.22 38.6288 102.973 39.8124C103.189 40.1352 103.565 40.0276 103.619 39.651C103.673 39.1668 103.458 38.6826 103.189 38.2522C105.502 37.3376 105.932 34.6476 104.749 32.657C105.825 31.85 106.632 30.6664 107.008 29.429C108.461 29.8594 110.505 29.5904 112.173 29.5366C113.626 32.9798 114.863 36.4768 115.993 40.0276C115.132 40.458 114.271 40.8884 113.518 41.4802C113.411 41.5878 113.464 41.8568 113.68 41.8568C114.594 41.6416 115.347 41.0498 116.208 40.727C116.423 41.4802 116.585 42.2872 116.692 43.0404C117.284 46.1608 116.639 48.0976 114.164 50.142C113.518 50.68 112.819 51.1104 112.227 51.756C111.635 52.4016 111.151 53.101 110.667 53.8542C109.86 54.984 109.322 56.329 109.214 57.7278C109.214 58.1582 109.053 58.75 109.429 59.0728C109.537 59.1266 109.645 59.1266 109.752 59.0728C109.86 59.019 109.86 58.9114 109.86 58.8038C109.914 58.3196 110.075 57.8892 110.183 57.4588C110.99 54.8764 112.765 52.563 115.025 51.1104C119.759 47.721 118.575 43.0404 116.908 38.2522C117.284 38.1984 117.607 38.037 117.93 37.8218C118.844 37.3376 118.629 36.154 117.661 35.9926C116.692 35.885 116.531 35.9926 115.885 35.1318C115.186 33.195 114.433 31.312 113.68 29.3752C116.208 28.8372 120.136 27.3308 120.028 24.3718ZM116.639 36.5306C117.069 36.692 117.553 36.4768 117.93 36.7996C117.93 36.8534 117.984 36.961 117.876 37.0148C117.553 37.23 117.284 37.3376 116.908 37.4452C116.746 37.1224 116.639 36.7996 116.639 36.5306C116.585 36.5306 116.585 36.5306 116.639 36.5306Z" fill="black"/>
<path d="M108.191 26.8468C107.868 26.793 107.492 26.6854 107.277 26.4164C107.061 26.255 107.169 25.8784 107.438 25.8246C108.891 25.8246 110.343 25.8784 111.742 25.6094C112.71 25.3942 113.679 25.1252 114.593 24.8562C115.131 24.7486 115.347 25.5018 114.862 25.717C112.764 26.6316 110.451 27.062 108.191 26.8468Z" fill="white"/>
<path d="M101.412 24.0486C101.197 23.9948 101.143 23.7796 101.197 23.6182C101.412 20.8744 103.672 18.7224 106.039 17.5926C106.362 17.4312 106.685 17.2698 106.954 17.1622C107.169 17.0546 107.438 17.1084 107.546 17.3236C107.653 17.5388 107.599 17.8078 107.384 17.9154C106.039 18.6686 104.64 19.368 103.564 20.5516C102.811 21.4124 102.112 22.3808 101.789 23.4568C101.735 23.672 101.735 24.1024 101.412 24.0486Z" fill="white"/>
<path d="M92.3204 39.1124C91.9438 38.7358 92.8584 38.3592 93.0736 38.1978C94.5262 37.2832 95.8712 36.261 97.27 35.2388C97.808 34.8084 98.346 34.378 98.884 33.9476C99.0454 33.7862 99.3144 33.7324 99.4758 33.9476C99.6372 34.109 99.6372 34.378 99.4758 34.4856C97.4314 36.261 95.118 37.6598 92.8584 39.0586C92.697 39.0586 92.5356 39.22 92.3204 39.1124Z" fill="white"/>
<path d="M86.7258 35.6155C86.7258 34.5395 86.9948 33.4635 87.2638 32.3875C87.6942 30.5583 88.555 28.8367 89.5234 27.2227C89.6848 26.9537 89.9001 26.5771 90.2767 26.7923C90.4919 26.8999 90.5457 27.1689 90.3842 27.3841C89.7386 28.6753 88.9854 29.9127 88.4474 31.2577C87.9632 32.7103 87.479 34.2167 87.2638 35.7231V35.6693C87.3176 36.0459 86.672 35.9921 86.7258 35.6155Z" fill="white"/>
<path d="M94.9567 47.8823C93.3965 47.6671 92.3205 46.3221 91.7287 44.9771C91.5673 44.5467 91.4059 44.1701 91.2983 43.7397C91.1369 43.3631 91.0293 42.9327 91.5135 42.7713C92.1591 42.5561 92.3205 43.4169 92.4819 43.8473C92.7509 44.4929 93.0199 45.0847 93.3427 45.6227C93.6655 46.1607 94.0959 46.5911 94.6339 46.9677C94.7953 47.1291 95.0105 47.2367 95.1719 47.3981C95.2257 47.4519 95.2795 47.5595 95.2795 47.6671C95.2795 47.8285 95.1181 47.9361 94.9567 47.8823Z" fill="white"/>
<path d="M121.48 53.4778C121.426 53.4241 121.426 53.4241 121.48 53.4778C121.426 53.4241 121.48 53.4778 121.48 53.4778Z" fill="white"/>
<path d="M130.142 11.5672C130.088 10.5988 130.465 9.68424 130.787 8.76964C131.218 7.63984 131.702 6.45624 132.24 5.32644C132.294 5.11124 132.724 5.11124 132.778 5.32644C132.832 5.43404 132.778 5.59544 132.778 5.70304C132.993 5.91824 132.993 6.29484 133.047 6.56384C133.209 7.37084 133.37 8.12404 133.531 8.93104C133.746 9.95324 134.177 11.0292 133.8 12.0514C132.832 14.1496 130.357 13.9344 130.142 11.5672ZM131.164 11.6748C131.272 11.9976 131.379 12.5356 131.863 12.5356C133.047 12.2128 132.617 10.814 132.509 9.95324C132.401 9.25384 132.348 8.55444 132.24 7.85504C131.756 9.09244 130.949 10.3298 131.164 11.6748Z" fill="white"/>
<path d="M131.649 13.1807C130.949 12.9655 130.788 12.1585 130.842 11.5667C130.949 10.4369 130.949 9.30708 131.272 8.23108C131.433 7.47788 132.563 7.31648 132.832 8.12348C132.94 8.71528 132.994 9.36088 132.994 10.0065C133.37 10.4369 133.209 11.0287 133.209 11.5129C133.209 12.2661 132.617 13.4497 131.649 13.1807Z" fill="white"/>
<path d="M131.702 49.9806C131.755 50.3034 131.54 50.6262 131.433 50.949C130.895 52.3478 130.195 53.639 129.55 55.0378C129.334 55.4144 129.227 56.1676 128.743 56.1676C128.42 56.1676 128.151 55.8448 128.258 55.522C128.85 53.639 129.603 51.218 131.11 49.8192C131.325 49.7116 131.648 49.7116 131.702 49.9806Z" fill="black"/>
<path d="M137.352 57.62C137.46 57.9428 137.299 58.2656 136.976 58.3732C136.115 58.696 135.254 58.9112 134.393 59.1802C133.479 59.3954 132.241 60.31 131.327 60.31H131.112C129.121 58.9112 135.738 57.082 136.653 57.082C136.976 57.1358 137.245 57.351 137.352 57.62Z" fill="black"/>
<path d="M124.709 55.9526C124.871 56.3292 124.548 56.8134 124.171 56.8134C123.956 56.8134 123.741 56.7058 123.633 56.4906C123.31 55.9526 122.988 55.3608 122.611 54.8228C122.288 54.2848 121.804 53.9082 121.427 53.424C121.374 53.3164 121.32 53.155 121.427 53.0474C121.75 52.617 122.611 53.0474 122.988 53.2626C123.848 53.962 124.279 54.9842 124.709 55.9526Z" fill="black"/>
<path d="M131.864 13.9882C130.465 13.9882 129.443 12.7508 129.389 11.4058C129.336 9.89937 130.089 8.55437 130.681 7.15557C131.003 6.56377 131.326 5.91817 131.595 5.32637C131.81 4.94977 131.972 4.51937 132.241 4.14277C132.51 3.92757 132.779 4.19657 132.779 4.51937C132.886 4.62697 132.94 4.73457 132.994 4.84217C133.102 5.16497 133.209 5.48777 133.371 5.81057C133.532 6.13337 133.747 6.56377 133.855 6.88657C134.178 7.80117 134.608 8.71577 134.823 9.68417C135.146 11.5672 133.909 14.0958 131.864 13.9882ZM131.972 12.966C132.51 12.966 132.886 12.5356 133.209 12.1052C133.586 11.5672 133.586 10.814 133.478 10.1684C133.317 9.41517 133.048 8.87717 132.833 8.12397C132.617 7.47837 132.51 6.77897 132.295 6.13337C131.541 7.69357 130.627 9.19997 130.465 10.9216C130.304 11.9438 130.842 13.0736 131.972 12.966Z" fill="black"/>
<path d="M100.605 51.2173C95.7094 51.1097 94.6872 44.1695 99.3678 42.7707V42.8245C99.3678 42.8245 99.3678 42.8783 99.4216 42.8783L99.4754 42.9321V42.9859C99.4754 42.9859 99.5292 42.9859 99.5292 43.0397L99.583 43.0935C99.6368 43.1473 99.6906 43.1473 99.6906 43.2011C99.7444 43.2011 99.7444 43.2549 99.7982 43.2549C96.7316 43.7929 96.2474 48.3121 99.2064 49.4419C102.757 50.6255 104.909 46.4829 102.273 43.9543C102.004 43.7391 101.789 43.5239 101.52 43.3625C101.305 43.2549 101.089 43.0935 101.197 42.8245C101.358 42.3403 102.004 42.6631 102.327 42.7707C107.007 44.7613 105.071 51.3787 100.605 51.2173Z" fill="#FFF100"/>
</svg>
